<svg id="FINAL" xmlns="http://www.w3.org/2000/svg" viewBox="199.1 371.8 213 37.3">
  <style>
    .st1{fill:#cee39b}.st4{fill:#fff}
  </style>
  <path d="M262.6 376.5H250c-.5 0-.9.2-1.3.5-.4.4-.5.8-.5 1.3V403c0 1.5 1.2 1.5 2.7 1.5s2.7-.1 2.7-1.5v-10.7h7.5c1.4 0 1.5-1.1 1.5-2.5s-.1-2.5-1.5-2.5h-7.5v-6.1h9.1c1.4 0 1.5-1.1 1.5-2.5-.2-1.1-.2-2.2-1.6-2.2zm33.8 7.4c-2.9 0-4.7 1-5.6 1.9-.1-.2-.1-.3-.2-.6-.2-.5 0 0 0 0-.3-1-.8-1.4-2.2-1.4s-2.5 0-2.5 1.4v17.9c0 1.5 1.2 1.5 2.6 1.5s2.6-.1 2.6-1.5v-8.9c0-4.9 2.6-5.4 5.2-5.4 1.4 0 1.5-1.1 1.5-2.5.1-1.3 0-2.4-1.4-2.4zm43.3 8c-.9-.3-2.5-.9-2.8-.9-1.3-.5-1.5-1.1-1.5-1.5 0-1.1 1.4-1.3 2.6-1.3 1.4 0 2.5.4 3.1.5.4.1.8.2 1.1.2 1.2 0 1.5-1.2 1.5-2.4 0-1 0-1.8-1.1-2.1-.9-.3-2.9-.8-4.8-.8-4.9 0-7.8 2.3-7.8 6.3 0 3.2 2 4.6 5 5.7.9.3 2.2.8 2.6.9 1 .5 1.5.9 1.5 1.8 0 1.2-1.4 2-3.4 2-1.4 0-2.6-.3-3.3-.5-.4-.1-.7-.2-1-.2-1.3 0-1.7 1.2-1.7 2.5 0 1.1.2 1.9 1.2 2.2.9.3 3.2.6 5 .6 5.1 0 8.5-2.8 8.5-6.9.2-3.9-2.5-5.3-4.7-6.1zm-65.8-8.4c-4.4 0-9.6 2.8-9.6 10.7s5.2 10.7 9.6 10.7 9.6-2.8 9.6-10.7-5.2-10.7-9.6-10.7zm0 16.7c-2.7 0-4.1-2.1-4.1-6.1 0-6 3.1-6 4.1-6s4.1 0 4.1 6c0 4.1-1.4 6.1-4.1 6.1zm93.4-16.7c-2.6 0-4.9.6-5.6.8-1.2.3-1.3 1.4-1.1 2.5s.5 2 1.6 2c.2 0 .4 0 .5-.1h.1c1.3-.3 2.7-.6 4.1-.6 2.5 0 3.4.7 3.5 2.8-.6-.1-1.4-.1-2.3-.1-4.3 0-8.7 2.2-8.7 7.1 0 3.1 1.5 6.9 8.7 6.9 1.9 0 4.5-.5 5.6-.7 1.5-.4 2.1-.7 2.1-2.1v-10.7c-.3-5.1-3-7.8-8.5-7.8zm3 16.5c-.6.1-1.5.2-2.5.2-2.8 0-3.3-.9-3.3-2.3 0-.6 0-2.6 3.8-2.6.7 0 1.5.1 2 .2v4.5zm17.4-11.9c1.2 0 2 .2 2.9.4.2.1.5.1.6.1 1.1 0 1.3-.9 1.5-1.9.3-1.2.3-2.3-.9-2.7-1.4-.5-2.9-.7-4.5-.7-4.6 0-9.8 3.3-9.8 10.7 0 7.9 5.6 10.7 9.8 10.7 1.6 0 3.2-.2 4.5-.7 1.2-.4 1.2-1.5.9-2.7-.2-1-.5-1.8-1.5-1.8-.2 0-.5 0-.6.1-.9.2-1.7.4-2.9.4-2.9 0-4.6-2-4.6-6 0-3.8 1.7-5.9 4.6-5.9zm-31.4 11.8c-.2 0-.3 0-.5.1-.4.1-1.2.2-1.8.2-1.4 0-1.9 0-1.9-3.9v-7.6h4c1.2 0 1.5-1 1.5-2.3 0-1.2-.2-2.3-1.5-2.3h-4v-4.4c0-1.5-1.2-1.5-2.6-1.5s-2.6.1-2.6 1.5v18.8c0 4.2 2.2 6.3 6.4 6.3 1.5 0 2.7-.2 3.5-.3 1.2-.3 1.4-1.4 1.2-2.7-.3-1.2-.6-1.9-1.7-1.9zM321 383.5c-2.7 0-4.7 1.2-5.9 2.6-1.1-1.7-2.9-2.6-5.2-2.6-2 0-3.7.9-5.1 2.2 0-.2-.1-.5-.1-.5-.3-1-.8-1.4-2.2-1.4s-2.5 0-2.5 1.4v17.9c0 1.5 1.2 1.5 2.6 1.5s2.6-.1 2.6-1.5V394c0-5.6 2.7-5.6 3.6-5.6.5 0 2.2 0 2.2 4.2v10.5c0 1.5 1.2 1.5 2.6 1.5 1.5 0 2.6-.1 2.6-1.5v-10.3c0-2.9 1.2-4.4 3.4-4.4 1.5 0 2.3 1.4 2.3 4.2v10.5c0 1.5 1.2 1.5 2.6 1.5 1.5 0 2.6-.1 2.6-1.5v-11.4c.5-6.7-3.1-8.2-6.1-8.2zm90.9 19.4l-5.1-9.4 4.3-7.9c.5-1.1-.1-1.7-2.3-1.7-1.9 0-2.5.1-3.2 1.3l-2.9 5.5c-.2.2-.3.5-.5.7s-.5.4-.8.5l-.8.3V378c0-1.5-1.2-1.5-2.6-1.5s-2.6.1-2.6 1.5v25.1c0 1.5 1.2 1.5 2.6 1.5s2.6-.1 2.6-1.5v-5.6l2.2-.9 3.5 6.6c.6 1.2 1.4 1.3 3.3 1.3 2.2.2 2.9-.5 2.3-1.6z" fill="#455560"/>
  <path class="st1" d="M237.5 377.8h-17.7c-.7 0-1.2.5-1.3 1.2-1 9-1 13.7 0 22.7.1.7.7 1.2 1.3 1.2h17.7c.7 0 1.2-.5 1.1-1.2-1-9-1-13.7 0-22.7.1-.6-.4-1.2-1.1-1.2z"/>
  <path d="M232 375.1l-20.8 1c-.8.1-1.5.7-1.5 1.4-1.2 10.2-1.2 15.5 0 25.7.1.8.8 1.4 1.5 1.4l20.8 1c.8.1 1.3-.6 1.2-1.4-1.2-11-1.2-16.7 0-27.8.2-.7-.4-1.3-1.2-1.3z" fill="#a8c933"/>
  <linearGradient id="SVGID_1_" y2="525.41" gradientUnits="userSpaceOnUse" x2="276.61" gradientTransform="matrix(.7727 0 0 -.7727 0 771.55)" y1="469.16" x1="276.61">
    <stop stop-color="#42AA44" offset="0"/>
    <stop stop-color="#75B940" offset=".5"/>
    <stop stop-color="#A1CD3A" offset="1"/>
  </linearGradient>
  <path d="M226.6 371.8c-6.3.6-9.4.9-15.8 1.5-4.6 4.5-6.9 6.6-11.3 10.7-.4 8.3-.3 12.5.7 20.9.1.9.9 1.6 1.9 1.7l24.5 2.5c.9.1 1.5-.6 1.5-1.6-1.3-11.3-1.3-22.7 0-33.9.1-1.2-.5-1.9-1.5-1.8z" fill="url(&quot;#SVGID_1_&quot;)"/>
  <path class="st4" d="M203.6 403.5c4.2.3 6.3.5 10.4.9-.3-2.8-.4-4.2-.5-7-4.2-.2-6.3-.2-10.4-.4.1 2.6.2 3.9.5 6.5zm-.6-9.8c7 .2 10.4.2 17.3.3-.1-2.9-.1-4.3 0-7.3-7 .2-10.4.2-17.3.4-.1 2.6-.1 4 0 6.6z"/>
  <path class="st1" d="M210.9 373.4c-4.6 4.5-6.9 6.6-11.3 10.7 2.8-.9 4.2-1.3 7-2.2.3-.1.6-.3.9-.5s.5-.5.6-.9c1.1-3 1.6-4.4 2.8-7.1z"/>
  <path d="M207.9 383.6c.5 0 1.1-.2 1.5-.6.5-.4.7-.9.7-1.5.2-3.2.4-4.9.8-8.2-1.2 2.8-1.7 4.2-2.7 7-.2.3-.3.6-.6.9-.3.2-.6.5-.9.5-2.9.9-4.2 1.3-7 2.2 3.2 0 4.9-.1 8.2-.3z" fill="#35933a"/>
  <path class="st4" d="M210.5 376.8c-.2 1.9-.3 2.9-.4 4.8 0 .5-.2 1.1-.7 1.5s-1 .6-1.5.6c6.4-.2 9.6-.4 15.9-.6.2-2.9.2-4.4.5-7.3-5.5.3-8.2.5-13.8 1z"/>
</svg>
