<svg id="FINAL" xmlns="http://www.w3.org/2000/svg" xmlns:xlink="http://www.w3.org/1999/xlink" viewBox="0 0 40 40"><defs><style>.cls-1{fill:#cee39b;}.cls-2{fill:#a8c933;}.cls-3{fill:url(#linear-gradient);}.cls-4{fill:#fff;}.cls-5{fill:#35933a;}</style><linearGradient id="linear-gradient" x1="30.02" y1="-312.5" x2="30.02" y2="-368.75" gradientTransform="translate(-8.35 280.05) scale(0.77)" gradientUnits="userSpaceOnUse"><stop offset="0" stop-color="#42aa44"/><stop offset="0.5" stop-color="#75b940"/><stop offset="1" stop-color="#a1cd3a"/></linearGradient></defs><title>Artboard 1</title><path class="cls-1" d="M38.65,7.35H21a1.3,1.3,0,0,0-1.3,1.2,86.26,86.26,0,0,0,0,22.7,1.38,1.38,0,0,0,1.3,1.2h17.7a1,1,0,0,0,1.1-1.2,86.26,86.26,0,0,1,0-22.7A1.07,1.07,0,0,0,38.65,7.35Z"/><path class="cls-2" d="M33.15,4.65l-20.8,1a1.61,1.61,0,0,0-1.5,1.4,92.18,92.18,0,0,0,0,25.7,1.6,1.6,0,0,0,1.5,1.4l20.8,1a1.13,1.13,0,0,0,1.2-1.4,107.79,107.79,0,0,1,0-27.8c.2-.7-.4-1.3-1.2-1.3Z"/><path class="cls-3" d="M27.75,1.35,12,2.85c-4.6,4.5-6.9,6.6-11.3,10.7a104.69,104.69,0,0,0,.7,20.9,2,2,0,0,0,1.9,1.7l24.5,2.5c.9.1,1.5-.6,1.5-1.6a147.82,147.82,0,0,1,0-33.9c.1-1.2-.5-1.9-1.5-1.8Z"/><path class="cls-4" d="M4.75,33.05c4.2.3,6.3.5,10.4.9-.3-2.8-.4-4.2-.5-7-4.2-.2-6.3-.2-10.4-.4C4.35,29.15,4.45,30.45,4.75,33.05Zm-.6-9.8c7,.2,10.4.2,17.3.3-.1-2.9-.1-4.3,0-7.3-7,.2-10.4.2-17.3.4C4.05,19.25,4.05,20.65,4.15,23.25Z"/><path class="cls-1" d="M12.05,3c-4.6,4.5-6.9,6.6-11.3,10.7,2.8-.9,4.2-1.3,7-2.2a4.05,4.05,0,0,0,.9-.5,1.46,1.46,0,0,0,.6-.9C10.35,7.05,10.85,5.65,12.05,3Z"/><path class="cls-5" d="M9.05,13.15a2.2,2.2,0,0,0,1.5-.6,1.8,1.8,0,0,0,.7-1.5c.2-3.2.4-4.9.8-8.2-1.2,2.8-1.7,4.2-2.7,7a4.7,4.7,0,0,1-.6.9c-.3.2-.6.5-.9.5-2.9.9-4.2,1.3-7,2.2C4.05,13.45,5.75,13.35,9.05,13.15Z"/><path class="cls-4" d="M11.65,6.35c-.2,1.9-.3,2.9-.4,4.8a1.93,1.93,0,0,1-.7,1.5,2.4,2.4,0,0,1-1.5.6c6.4-.2,9.6-.4,15.9-.6.2-2.9.2-4.4.5-7.3C20,5.65,17.25,5.85,11.65,6.35Z"/></svg>